<svg width="900" height="200" viewBox="0 0 900 200"
     xmlns="http://www.w3.org/2000/svg">

  <defs>
    <linearGradient id="bg" x1="0" y1="0" x2="1" y2="1">
      <stop offset="0%" stop-color="#0d1117"/>
      <stop offset="100%" stop-color="#020409"/>
    </linearGradient>

    <filter id="glow">
      <feGaussianBlur stdDeviation="6" result="blur"/>
      <feMerge>
        <feMergeNode in="blur"/>
        <feMergeNode in="SourceGraphic"/>
      </feMerge>
    </filter>
  </defs>

  <rect x="0" y="0" width="900" height="200" rx="16"
        fill="url(#bg)" stroke="#30363d"/>

  <!-- Headline -->
  <text x="450" y="78"
        text-anchor="middle"
        fill="#2ea043"
        font-size="42"
        font-family="Inter, system-ui, -apple-system"
        font-weight="500">
    Hi, I'm Sree Varshan
  </text>

  <!-- Red connector -->
  <line x1="330" y1="92" x2="570" y2="92"
        stroke="#f85149"
        stroke-width="2"
        stroke-linecap="round"/>

  <!-- Subheading -->
  <text x="450" y="115"
        text-anchor="middle"
        fill="#9da7b1"
        font-size="16"
        font-family="Inter, system-ui, -apple-system">
    Data Scientist focused on decision-oriented analytics, machine learning, and applied Generative AI, with ongoing exploration of Agentic AI systems.
  </text>

  <!-- DS-FIRST PIPELINE -->
  <g font-family="Inter, system-ui" font-size="12" fill="#c9d1d9">

    <rect x="80" y="138" width="150" height="32" rx="8" fill="#161b22"/>
    <text x="155" y="159" text-anchor="middle">Business Problem</text>

    <rect x="250" y="138" width="110" height="32" rx="8" fill="#161b22"/>
    <text x="305" y="159" text-anchor="middle">Data</text>

    <rect x="380" y="138" width="130" height="32" rx="8" fill="#161b22"/>
    <text x="445" y="159" text-anchor="middle">Modeling</text>

    <rect x="530" y="138" width="120" height="32" rx="8" fill="#161b22"/>
    <text x="590" y="159" text-anchor="middle">Insight</text>

    <rect x="670" y="138" width="180" height="32" rx="8" fill="#161b22"/>
    <text x="760" y="159" text-anchor="middle">Automation (GenAI)</text>

  </g>

  <!-- Pipeline connectors -->
  <g stroke="#2ea043" stroke-width="2.2" stroke-linecap="round" filter="url(#glow)">
    <line x1="230" y1="154" x2="250" y2="154"/>
    <line x1="360" y1="154" x2="380" y2="154"/>
    <line x1="510" y1="154" x2="530" y2="154"/>
    <line x1="650" y1="154" x2="670" y2="154"/>
  </g>

</svg>



