<svg xmlns="http://www.w3.org/2000/svg" width="1200" height="320" viewBox="0 0 1200 320">
  <rect x="10" y="10" width="1180" height="300" rx="22" fill="#f9fafb" stroke="#e5e7eb"/>

  <!-- File stack -->
  <rect x="40" y="135" width="50" height="38" rx="6" fill="#e5e7eb" stroke="#9ca3af"/>
  <rect x="48" y="128" width="50" height="38" rx="6" fill="#dbeafe" stroke="#60a5fa"/>
  <rect x="56" y="121" width="50" height="38" rx="6" fill="#dcfce7" stroke="#22c55e"/>

  <text x="65" y="185" text-anchor="middle" font-family="Arial" font-size="13" font-weight="700" fill="#374151">
    New CSV / Excel
  </text>

  <!-- Data Ingestion -->
  <rect x="120" y="90" width="170" height="140" rx="14" fill="#eef2ff" stroke="#6366f1" stroke-width="2"/>
  <text x="135" y="115" font-family="Arial" font-size="16" font-weight="600" fill="#1f2937">Data Ingestion</text>
  <text x="130" y="140" font-family="Arial" font-size="12" fill="#4b5563">• Scan & Load</text>
  <text x="130" y="158" font-family="Arial" font-size="12" fill="#4b5563">• De-duplicate</text>
  <text x="130" y="176" font-family="Arial" font-size="12" fill="#4b5563">• Currency Convert</text>
  <text x="130" y="194" font-family="Arial" font-size="12" fill="#4b5563">• Log Files</text>

  <!-- Seller Data -->
  <rect x="320" y="90" width="160" height="140" rx="14" fill="#ecfdf5" stroke="#16a34a" stroke-width="2"/>
  <text x="345" y="120" font-family="Arial" font-size="16" font-weight="600" fill="#1f2937">Seller Data</text>
  <text x="340" y="155" font-family="Arial" font-size="12" fill="#4b5563">• Cleansed Records</text>

  <!-- Price Monitoring -->
  <rect x="510" y="90" width="180" height="140" rx="14" fill="#fff7ed" stroke="#ea580c" stroke-width="2"/>
  <text x="525" y="115" font-family="Arial" font-size="16" font-weight="600" fill="#1f2937">Price Monitoring</text>
  <text x="520" y="145" font-family="Arial" font-size="12" fill="#4b5563">• Enrichment & Join</text>
  <text x="520" y="163" font-family="Arial" font-size="12" fill="#4b5563">• Violation Detection</text>
  <text x="520" y="181" font-family="Arial" font-size="12" fill="#4b5563">• Track Lineage</text>

  <!-- Violation Table -->
  <rect x="720" y="90" width="170" height="140" rx="14" fill="#fef2f2" stroke="#dc2626" stroke-width="2"/>
  <text x="740" y="120" font-family="Arial" font-size="16" font-weight="600" fill="#1f2937">Violation Table</text>
  <text x="735" y="155" font-family="Arial" font-size="12" fill="#4b5563">• Flagged Violations</text>

  <!-- PDF Letters -->
  <rect x="920" y="90" width="170" height="140" rx="14" fill="#f9fafb" stroke="#374151" stroke-width="2"/>
  <text x="950" y="120" font-family="Arial" font-size="16" font-weight="600" fill="#1f2937">PDF Letters</text>
  <text x="945" y="155" font-family="Arial" font-size="12" fill="#4b5563">• Generate Warnings</text>

  <!-- Top label -->
  <text x="1005" y="60" text-anchor="middle" font-family="Arial" font-size="13" font-weight="700" fill="#374151">
    Generate Warnings
  </text>

  <!-- Arrows -->
  <line x1="106" y1="150" x2="120" y2="150" stroke="#6b7280" stroke-width="2"/>
  <polygon points="120,150 114,146 114,154" fill="#6b7280"/>

  <line x1="290" y1="150" x2="320" y2="150" stroke="#6b7280" stroke-width="2"/>
  <polygon points="320,150 314,146 314,154" fill="#6b7280"/>

  <line x1="480" y1="150" x2="510" y2="150" stroke="#6b7280" stroke-width="2"/>
  <polygon points="510,150 504,146 504,154" fill="#6b7280"/>

  <line x1="690" y1="150" x2="720" y2="150" stroke="#6b7280" stroke-width="2"/>
  <polygon points="720,150 714,146 714,154" fill="#6b7280"/>

  <line x1="890" y1="150" x2="920" y2="150" stroke="#6b7280" stroke-width="2"/>
  <polygon points="920,150 914,146 914,154" fill="#6b7280"/>

  <line x1="1005" y1="90" x2="1005" y2="70" stroke="#6b7280" stroke-width="2"/>
  <polygon points="1005,70 1001,76 1009,76" fill="#6b7280"/>
</svg>
