<svg xmlns="http://www.w3.org/2000/svg" viewBox="0 0 900 220">

  <!-- Source -->
  <rect x="20" y="95" width="40" height="30" fill="#dcfce7" stroke="#22c55e"/>
  <text x="40" y="135" text-anchor="middle" font-family="Arial" font-size="11" font-weight="700">CSV</text>

  <!-- Data Ingestion -->
  <rect x="80" y="60" width="140" height="100" fill="#eef2ff" stroke="#6366f1" stroke-width="2"/>
  <text x="95" y="85" font-family="Arial" font-size="13" font-weight="700">Data Ingestion</text>
  <text x="90" y="105" font-family="Arial" font-size="10">Scan &amp; Load</text>
  <text x="90" y="120" font-family="Arial" font-size="10">De-duplicate</text>

  <!-- Seller -->
  <rect x="240" y="60" width="140" height="100" fill="#ecfdf5" stroke="#16a34a" stroke-width="2"/>
  <text x="260" y="90" font-family="Arial" font-size="13" font-weight="700">Seller Data</text>
  <text x="250" y="110" font-family="Arial" font-size="10">Cleaned Records</text>

  <!-- Monitoring -->
  <rect x="400" y="60" width="160" height="100" fill="#fff7ed" stroke="#ea580c" stroke-width="2"/>
  <text x="415" y="85" font-family="Arial" font-size="13" font-weight="700">Price Monitoring</text>
  <text x="410" y="105" font-family="Arial" font-size="10">Enrichment &amp; Join</text>
  <text x="410" y="120" font-family="Arial" font-size="10">Violation Detection</text>
  <text x="410" y="135" font-family="Arial" font-size="10">Track Lineage</text>

  <!-- Violation -->
  <rect x="580" y="60" width="140" height="100" fill="#fef2f2" stroke="#dc2626" stroke-width="2"/>
  <text x="600" y="90" font-family="Arial" font-size="13" font-weight="700">Violation Table</text>
  <text x="595" y="110" font-family="Arial" font-size="10">Flagged Violations</text>

  <!-- PDF -->
  <rect x="740" y="60" width="140" height="100" fill="#f9fafb" stroke="#374151" stroke-width="2"/>
  <text x="770" y="90" font-family="Arial" font-size="13" font-weight="700">PDF Letters</text>
  <text x="760" y="110" font-family="Arial" font-size="10">Generate Warning</text>

  <!-- Top label -->
  <text x="810" y="35" text-anchor="middle" font-family="Arial" font-size="12" font-weight="700">Generate Warnings</text>

  <!-- Arrows -->
  <line x1="60" y1="110" x2="80" y2="110" stroke="#6b7280" stroke-width="2"/>
  <polygon points="80,110 74,106 74,114" fill="#6b7280"/>

  <line x1="220" y1="110" x2="240" y2="110" stroke="#6b7280" stroke-width="2"/>
  <polygon points="240,110 234,106 234,114" fill="#6b7280"/>

  <line x1="380" y1="110" x2="400" y2="110" stroke="#6b7280" stroke-width="2"/>
  <polygon points="400,110 394,106 394,114" fill="#6b7280"/>

  <line x1="560" y1="110" x2="580" y2="110" stroke="#6b7280" stroke-width="2"/>
  <polygon points="580,110 574,106 574,114" fill="#6b7280"/>

  <line x1="720" y1="110" x2="740" y2="110" stroke="#6b7280" stroke-width="2"/>
  <polygon points="740,110 734,106 734,114" fill="#6b7280"/>

</svg>
