<svg width="540" height="230" viewBox="0 0 540 230"
     xmlns="http://www.w3.org/2000/svg">

  <!-- LEFT CARD : Focus Distribution -->
  <rect x="0" y="0" width="360" height="230" rx="12"
        fill="#0d1117" stroke="#30363d"/>

  <text x="20" y="30" fill="#f85149" font-size="16"
        font-family="Inter, system-ui">
    Focus Distribution
  </text>

  <text x="20" y="48" fill="#8b949e" font-size="12"
        font-family="Inter, system-ui">
    Jan 2025 – Present
  </text>

  <!-- ML + DL + Statistics -->
  <text x="20" y="78" fill="#c9d1d9" font-size="13">ML · DL · Statistics</text>
  <text x="300" y="78" fill="#c9d1d9" font-size="13">70%</text>
  <rect x="20" y="85" width="320" height="8" rx="4" fill="#30363d"/>
  <rect x="20" y="85" width="224" height="8" rx="4" fill="#3776AB"/>

  <!-- NLP -->
  <text x="20" y="118" fill="#c9d1d9" font-size="13">NLP</text>
  <text x="300" y="118" fill="#c9d1d9" font-size="13">12%</text>
  <rect x="20" y="125" width="320" height="8" rx="4" fill="#30363d"/>
  <rect x="20" y="125" width="38" height="8" rx="4" fill="#FF6F00"/>

  <!-- RAG -->
  <text x="20" y="158" fill="#c9d1d9" font-size="13">RAG</text>
  <text x="300" y="158" fill="#c9d1d9" font-size="13">5%</text>
  <rect x="20" y="165" width="320" height="8" rx="4" fill="#30363d"/>
  <rect x="20" y="165" width="16" height="8" rx="4" fill="#1ABC9C"/>

  <!-- LLM -->
  <text x="20" y="198" fill="#c9d1d9" font-size="13">LLMs</text>
  <text x="300" y="198" fill="#c9d1d9" font-size="13">3%</text>
  <rect x="20" y="205" width="320" height="8" rx="4" fill="#30363d"/>
  <rect x="20" y="205" width="10" height="8" rx="4" fill="#2ECC71"/>

  <!-- RIGHT CARD : Contributions -->
  <rect x="380" y="0" width="160" height="230" rx="12"
        fill="#0d1117" stroke="#30363d"/>

  <rect x="380" y="0" width="160" height="5" fill="#2ea043"/>

  <text x="460" y="95"
        text-anchor="middle"
        fill="#e6edf3"
        font-size="40"
        font-family="Inter, system-ui">
    600+
  </text>

  <text x="460" y="118"
        text-anchor="middle"
        fill="#8b949e"
        font-size="12"
        letter-spacing="1"
        font-family="Inter, system-ui">
    Contributions
  </text>

  <line x1="404" y1="132" x2="516" y2="132"
        stroke="#30363d"/>

  <text x="460" y="155"
        text-anchor="middle"
        fill="#6e7681"
        font-size="11"
        font-family="Inter, system-ui">
    Jan 2025 – Present
  </text>

</svg>

