<svg width="360" height="230" viewBox="0 0 360 230"
     xmlns="http://www.w3.org/2000/svg">

  <!-- Background -->
  <rect x="0" y="0" width="360" height="230" rx="12"
        fill="#0d1117" stroke="#30363d"/>

  <!-- Title -->
  <text x="20" y="30" fill="#f85149"
        font-size="16" font-family="Arial" font-weight="bold">
    Focus Distribution
  </text>

  <!-- Timeline -->
  <text x="20" y="48" fill="#8b949e"
        font-size="12" font-family="Arial">
    Jan 2025 – Present
  </text>

  <!-- ML + DL + Statistics -->
  <text x="20" y="78" fill="#c9d1d9" font-size="13">
    ML · DL · Statistics
  </text>
  <text x="300" y="78" fill="#c9d1d9" font-size="13">70%</text>
  <rect x="20" y="85" width="320" height="8" rx="4" fill="#30363d"/>
  <rect x="20" y="85" width="224" height="8" rx="4" fill="#3776AB"/>

  <!-- NLP -->
  <text x="20" y="118" fill="#c9d1d9" font-size="13">NLP</text>
  <text x="300" y="118" fill="#c9d1d9" font-size="13">12%</text>
  <rect x="20" y="125" width="320" height="8" rx="4" fill="#30363d"/>
  <rect x="20" y="125" width="38" height="8" rx="4" fill="#FF6F00"/>

  <!-- RAG -->
  <text x="20" y="158" fill="#c9d1d9" font-size="13">RAG</text>
  <text x="300" y="158" fill="#c9d1d9" font-size="13">5%</text>
  <rect x="20" y="165" width="320" height="8" rx="4" fill="#30363d"/>
  <rect x="20" y="165" width="16" height="8" rx="4" fill="#1ABC9C"/>

  <!-- LLM -->
  <text x="20" y="198" fill="#c9d1d9" font-size="13">LLMs</text>
  <text x="300" y="198" fill="#c9d1d9" font-size="13">3%</text>
  <rect x="20" y="205" width="320" height="8" rx="4" fill="#30363d"/>
  <rect x="20" y="205" width="10" height="8" rx="4" fill="#2ECC71"/>

</svg>


<svg width="160" height="160" viewBox="0 0 160 160"
     xmlns="http://www.w3.org/2000/svg">

  <!-- Card -->
  <rect x="0" y="0" width="160" height="160" rx="12"
        fill="#0d1117" stroke="#30363d"/>

  <!-- Accent Bar -->
  <rect x="0" y="0" width="160" height="5" fill="#2ea043"/>

  <!-- Main Number -->
  <text x="80" y="76"
        text-anchor="middle"
        fill="#e6edf3"
        font-size="40"
        font-weight="400"
        font-family="Inter, system-ui, -apple-system">
    600+
  </text>

  <!-- Label -->
  <text x="80" y="98"
        text-anchor="middle"
        fill="#8b949e"
        font-size="12"
        letter-spacing="1"
        font-weight="400"
        font-family="Inter, system-ui, -apple-system">
    Contributions
  </text>

  <!-- Divider -->
  <line x1="24" y1="110" x2="136" y2="110"
        stroke="#30363d" stroke-width="1"/>

  <!-- Timeline -->
  <text x="80" y="130"
        text-anchor="middle"
        fill="#6e7681"
        font-size="11"
        font-weight="400"
        font-family="Inter, system-ui, -apple-system">
    Jan 2025 – Present
  </text>

</svg>
